<?xml version="1.0" encoding="utf-8"?>
<!-- Generator: Adobe Illustrator 16.0.1, SVG Export Plug-In . SVG Version: 6.00 Build 0)  -->
<!DOCTYPE svg PUBLIC "-//W3C//DTD SVG 1.1//EN" "http://www.w3.org/Graphics/SVG/1.1/DTD/svg11.dtd">
<svg version="1.1" id="Layer_1" xmlns="http://www.w3.org/2000/svg" xmlns:xlink="http://www.w3.org/1999/xlink" x="0px" y="0px"
	 width="400px" height="400px" viewBox="0 0 400 400" enable-background="new 0 0 400 400" xml:space="preserve">
<g>
	<path fill="#964399" d="M143.2,120.321c0.514-0.09,1.027-0.181,1.541-0.271c0-4.442,0.186-8.895-0.053-13.325
		c-0.234-4.357-4.115-8.02-8.165-6.628C146.303,104.512,141.509,113.402,143.2,120.321z"/>
	<path fill="#964399" d="M156.3,139.878c1.217-0.499,2.644-1.005,3.409-1.96c0.962-1.202,2.073-3.062,1.751-4.274
		c-0.268-1.01-2.47-1.964-3.893-2.095c-1.926-0.178-3.932,0.696-5.896,0.664c-1.568-0.025-3.554-0.253-4.623-1.208
		c-13.851-12.384-30.117-15.655-47.887-12.537c-6.759,1.186-11.586,5.372-13.939,13.124c5.054,1.195,9.786,2.666,14.629,3.391
		c11.339,1.696,22.742,2.966,34.1,4.547c5.499,0.766,8.126,3.899,6.995,9.617c-0.552,2.79-0.15,6.763-1.855,8.167
		c-10.134,8.35-20.657,16.243-31.272,23.985c-3.861,2.816-8.334,4.794-12.527,7.154c0.221,0.452,0.442,0.904,0.664,1.356
		c6.284-2.919,12.568-5.839,18.796-8.732c1.34,2.428,2.347,4.252,3.579,6.484c2.316-1.642,4.157-2.946,6.116-4.335
		c1.381,1.221,2.674,2.264,3.852,3.422c4.503,4.433,8.722,9.191,13.509,13.289c6.977,5.971,12.512,4.555,16.625-3.746
		c0.512-1.033,0.875-2.141,1.306-3.214c-0.167-0.553-0.333-1.106-0.499-1.659c-1.784,0.392-3.959,0.271-5.278,1.273
		c-3.58,2.724-6.909,2.26-10.018-0.257c-2.817-2.28-5.614-4.759-7.79-7.628c-6.521-8.596-6.28-11.338,3.515-16.292
		c7.388-3.736,10.417-8.595,8.997-16.517c-0.029-0.162-0.007-0.333-0.008-0.499C148.609,143.012,148.617,143.031,156.3,139.878z
		 M99.693,127.216c5.103-1.386,10.214-3.787,14.85,0C109.593,127.216,104.643,127.216,99.693,127.216z"/>
	<path fill="#964399" d="M265.285,135.745c2.043,0.642,4.259,0.731,7.742,1.296c1.791-0.885,5.455-1.613,6.946-3.813
		c0.973-1.436-0.727-5.295-2.071-7.57c-3.959-6.703-9.979-11.096-17.312-13.596c-16.894-5.759-33.737-4.908-50.489,0.651
		c-8.232,2.732-15.586,6.96-20.594,14.203c-1.436,2.076-2.797,6.312-1.761,7.599c3.336,4.144,7.536,7.787,12.005,10.702
		c1.332,0.868,4.739-1.071,7.027-2.099C225.54,134.696,244.639,129.269,265.285,135.745z M270.854,129.423
		c-3.74-3.086-9.225-0.253-11.527-5.729C266.084,122.523,268.657,123.683,270.854,129.423z M208.316,134.23
		c-3.044,1.183-6.445,1.445-10.18,2.23c-0.426-7.211,3.247-10.654,7.767-12.784c6.55-3.085,13.476-5.374,20.452-8.084
		c1.006,4.021,1.87,7.478,2.456,9.821C221.768,128.479,215.131,131.583,208.316,134.23z"/>
	<path fill="#964399" d="M204.237,186.501c-0.723,1.883-1.099,3.898-1.616,5.86c2.336,0.279,4.938,1.319,6.929,0.619
		c1.895-0.667,3.909-2.915,4.523-4.888c1.163-3.74,1.418-7.772,1.946-11.697c0.514-3.825-1.298-6.733-4.663-7.976
		c-4.006-1.479-8.268-2.722-12.491-3.016c-3.721-0.26-7.248,1.293-7.855,6.83c3.955,0.565,7.889,0.909,11.709,1.763
		c2.057,0.46,5.439,1.639,5.555,2.767c0.25,2.438-1.11,5.093-2.049,7.569C205.902,185.185,204.564,185.649,204.237,186.501z"/>
	<path fill="#964399" d="M194.326,107.102c-0.795-7.993,2.923-13.713,10.205-18.772C195.597,88.186,190.229,99.188,194.326,107.102z
		"/>
	<path fill="#964399" d="M177.172,180.11c-1.926,0.084-3.951,1.606-5.599,2.896c-0.88,0.688-1.638,2.448-1.362,3.415
		c0.226,0.796,2.043,1.57,3.176,1.6c3.639,0.095,7.293-0.354,10.928-0.228c4.032,0.141,8.051,0.681,12.782,1.111
		c2.275-4.993,1.984-8.07-1.709-8.448C189.36,179.839,183.234,179.846,177.172,180.11z"/>
	<path fill="#964399" d="M220.05,85.139c21.9,1.62,43.365,4.649,59.545,22.161c-3.589-4.483-7.193-9.193-11.922-12.03
		c-21.109-12.668-44.302-13.434-67.957-10.208C206.496,85.062,213.307,84.64,220.05,85.139z"/>
	<path fill="#964399" d="M70.316,154.87c5.447-0.263,9.149,2.241,10.776,7.731c0.355,1.199,1.971,2.868,3.019,2.878
		c5.142,0.044,10.441,0.252,15.374-0.914c2.943-0.696,5.541-3.598,7.819-5.965c0.796-0.827,0.592-4.212,0.118-4.38
		c-1.678-0.595-3.86-0.824-5.497-0.224c-2.288,0.838-4.257,2.545-6.751,4.127c-0.737-0.5-1.286-0.85-1.81-1.234
		c-0.672-0.492-1.287-1.068-1.989-1.511c-10.246-6.458-21.085-10.811-33.49-8.398c-6.409,1.245-9.577,4.908-10.266,11.256
		c3.205-0.621,6.26-1.332,9.354-1.785C61.406,155.803,65.853,155.085,70.316,154.87z"/>
	<path fill="#964399" d="M49.69,178.808c-4.151-3.845-7.637-7.074-11.241-10.412C39.673,175.51,42.06,177.854,49.69,178.808z"/>
	<path fill="#964399" d="M40.065,156.72c-0.309-5.819,1.931-9.833,7.468-12.11c2.196-0.903,4.08-2.568,6.105-3.888
		c-11.492,1.627-13.95,4.183-15.2,14.757c-0.272,2.304-0.41,4.631-0.454,6.95c-0.024,1.299,0.27,2.604,0.421,3.906
		c0.563-0.021,1.127-0.042,1.69-0.062C40.095,163.088,40.233,159.896,40.065,156.72z"/>
	<path fill="#964399" d="M254.158,277.356c9.047-4.493,18.268-8.635,28.538-13.468c-1.891,0.226-2.583,0.167-3.159,0.397
		c-10.934,4.376-22.149,8.178-32.717,13.312c-24.971,12.131-50.034,23.577-78.641,23.542c0.046,0.654,0.092,1.309,0.137,1.962
		c8.846-0.863,17.817-1.062,26.51-2.723C215.952,296.342,235.068,286.838,254.158,277.356z"/>
	<path fill="#964399" d="M123.59,304.536c0.089-0.499,0.178-0.997,0.267-1.495c-17.895-2.217-36.269-3.145-50.141-19.237
		c2.999,10.638,10.097,15.261,18.568,16.951C102.562,302.806,113.141,303.344,123.59,304.536z"/>
	<path fill="#964399" d="M281.906,271.485c-19.94,10.49-40.563,19.265-62.003,26.181c-37.122,11.976-75.158,17.715-114.147,16.345
		c-17.775-0.624-35.13-3.325-49.885-15.001c1.421,1.588,2.751,3.269,4.277,4.747c7.568,7.329,17.1,10.855,27.19,11.056
		c19.776,0.394,39.656,0.69,59.349-0.835c49.021-3.798,95.527-17.154,139.28-39.739c5.567-2.874,10.896-6.208,16.335-9.329
		c-0.297-0.592-0.594-1.183-0.891-1.774C294.896,265.891,288.146,268.203,281.906,271.485z"/>
	<path fill="#964399" d="M363.264,174.915c-1.644,12.583-6.783,22.389-20.309,25.79c7.646-0.285,14.661-3.404,18.272-9.258
		c2.924-4.74,2.353-11.637,3.296-17.6C364.051,174.196,363.316,174.511,363.264,174.915z"/>
	<path fill="#964399" d="M346.604,149.249c-11.915-13.251-32.196-16.58-49.048-8.009c-3.261,1.657-6.373,3.617-9.675,5.183
		c-13.644,6.468-26.544,6.456-38.496-4.127c-2.715-2.404-6.371-3.745-9.957-5.782c-0.704,8.742,3.525,15.192,12.448,17.853
		c20.348,6.066,39.764,3.759,57.76-7.996c0.961-0.628,1.892-1.444,2.958-1.748c14.101-4.009,30.27,5.045,32.801,19.26
		c0.896,5.035-1.157,10.625-2.025,15.936c-0.641,3.925-1.541,7.808-2.326,11.708C356.098,182.408,358.127,162.065,346.604,149.249z"
		/>
	<path fill="#964399" d="M362.306,147.362c-3.688-14.53-21.371-20.396-41.863-16.742
		C336.275,131.441,353.095,129.819,362.306,147.362z"/>
	<path fill="#964399" d="M331.987,170.584c-7.955-4.525-15.114-9.505-14.647-20.342c-4.642-0.134-6.092,2.453-5.884,5.423
		c0.287,4.107-2.028,5.329-5.115,6.733c-28.21,12.83-56.875,24.501-86.717,32.97c-29.276,8.309-58.923,14.453-89.664,11.641
		c-18.59-1.7-36.034-6.771-50.508-19.167c-2.376-2.034-4.006-5.58-4.761-8.72c-1.156-4.812-1.067-9.911-1.94-14.811
		c-0.198-1.11-2.176-1.903-3.335-2.843c-0.818,1.07-1.946,2.023-2.4,3.23c-1.733,4.613-3.285,9.295-4.837,13.974
		c-2.031,6.121-4.819,12.131-5.827,18.422c-2.228,13.9-1.937,27.974,0.839,41.786c6.71,33.387,15.583,36.253,40.345,41.074
		c26.36,5.133,53.035,5.023,79.693,3.455c19.992-1.176,39.819-3.542,58.413-11.896c23.224-10.435,44.428-23.485,59.727-44.562
		c8.106-11.167,16.512-22.118,24.632-33.276c0.665-0.914,0.386-2.707,0.178-4.034c-1.092-6.932,3.51-11.751,10.251-10.682
		c3.482,0.553,7.104,1.764,10.684-1.924C337.889,174.729,335.107,172.358,331.987,170.584z M73.792,259.826
		c-2.353-4.962-4.705-9.924-7.057-14.886c0.469-0.212,0.938-0.424,1.407-0.636C70.569,249.239,75.282,253.158,73.792,259.826z
		 M75.593,220.923c-6.983-4.067-5.996-14.447,2.172-23.464C80.017,205.785,77.652,213.254,75.593,220.923z M270.515,188.812
		c1.05,7.505-3.043,15.332-10.278,18.692c-5.979,2.777-12.366,4.699-18.625,6.845c-4.678,1.604-9.439,2.96-14.451,4.516
		c-1.181-5.413-2.34-10.728-3.594-16.475C239.37,197.819,254.898,193.328,270.515,188.812z M177.379,216.304
		c0.079-1.065,1.474-2.558,2.574-2.925c3.133-1.043,6.408-1.693,9.658-2.344c8.44-1.688,16.898-3.293,26.026-5.062
		c1.317,6.141,2.453,11.434,3.574,16.659c-14.086,5.144-32.05,7.692-41.954,5.847C177.258,224.503,177.078,220.386,177.379,216.304z
		 M145.104,216.596c8.119-0.958,16.077-1.897,24.367-2.876c0,5.256,0,9.846,0,14.892c-8.837,0-17.643,0-27.336,0
		C143.18,224.384,144.148,220.467,145.104,216.596z M108.932,212.963c9.099,1.253,17.686,2.436,26.251,3.615
		c0,4.407,0,7.999,0,13.044c-10.059-0.93-19.718-1.823-29.606-2.737C106.956,221.159,107.986,216.888,108.932,212.963z
		 M93.616,269.137c-4.598-1.266-9.196-2.531-13.793-3.797c5.877-2.075,5.816-5.365,3.706-9.733c-0.913-1.89-1.135-4.112-1.672-6.185
		c0.873-0.354,1.746-0.71,2.619-1.064c3.472,6.503,6.943,13.006,10.415,19.51C94.466,268.29,94.041,268.713,93.616,269.137z
		 M87.257,224.353c-1.023-6.242-4.711-12.854,0.892-19.411c4.385,2.052,8.256,3.864,12.548,5.873
		c-1.452,4.98-2.93,10.05-4.534,15.554C94.081,225.896,90.977,225.194,87.257,224.353z M105.297,271.01
		c-3.107-7.183-5.558-12.848-8.286-19.152c4.398,1.079,8.461,2.077,12.023,2.951c2.341,6.114,4.551,11.884,7.129,18.618
		C111.301,272.345,107.358,271.468,105.297,271.01z M128.041,273.956c-0.964-0.137-2.223-1.031-2.614-1.905
		c-2.566-5.732-4.932-11.556-7.469-17.602c15.268-4.828,23.958,2.642,24.308,21.088
		C137.454,275.028,132.729,274.619,128.041,273.956z M177.6,274.618c-7.93,0.127-16.617,0.306-25.304,0.326
		c-0.676,0.002-1.828-1.021-1.958-1.718c-1.265-6.775-2.359-13.583-3.425-19.925c10.295-1.298,20.086-2.532,30.688-3.868
		C177.6,257.175,177.6,265.182,177.6,274.618z M190.75,272.224c-3.588-0.136-5.243-1.045-5.061-5.24
		c0.244-5.613-0.73-11.27-0.789-16.912c-0.014-1.328,1.272-3.509,2.419-3.88c11.039-3.569,22.175-6.84,33.287-10.18
		c0.619-0.187,1.278-0.237,0.524-0.104c3.339,9.247,6.536,18.1,9.906,27.433C217.591,267.01,204.921,272.76,190.75,272.224z
		 M239.346,260.377c-1.448-10.147-10.583-16.475-8.229-26.264c12.835-5.2,25.1-10.169,36.807-14.912
		c1.588,5.484,3.319,11.471,5.372,18.562C263.108,244.548,251.622,252.199,239.346,260.377z M279.752,228.753
		c-7.444-10.502,2.365-22.073,21.831-24.491C292.819,212.136,290.861,224.391,279.752,228.753z M313.794,178.089
		c-0.303,0.896-0.668,1.781-1.09,2.649c-3.453,7.095-10.779,13.141-19.779,16.403c-4.222,1.53-8.809,2.453-13.543,2.575
		c-0.109-0.306-0.309-0.613-0.306-0.92c0.04-4.466-1.417-9.874,0.598-13.133c2.02-3.268,7.478-4.452,11.484-6.437
		c5.93-2.937,11.858-5.889,17.9-8.58c1.686-0.75,3.77-0.607,5.676-0.875C315.052,172.599,314.701,175.4,313.794,178.089z"/>
	<path fill="#964399" d="M364.523,173.848c0.027-0.02,0.057-0.04,0.082-0.06l-0.063-0.066
		C364.535,173.763,364.53,173.806,364.523,173.848z"/>
	<path fill="#964399" d="M364.605,173.788c-0.006-0.129-0.012-0.257-0.019-0.386c-0.024,0.096-0.04,0.192-0.065,0.289
		C364.542,173.722,364.605,173.788,364.605,173.788z"/>
	<path fill="#964399" d="M109.285,90.094c11.369-2.032,22.479-0.268,33.409,3.062c1.534,0.468,3.153,0.658,4.732,0.978
		c0.209-0.529,0.417-1.06,0.626-1.589c-1.339-0.856-2.575-2.174-4.032-2.499c-16.481-3.674-32.822-4.36-48.984,1.946
		C88.422,94.572,85,99.121,84.297,106.19C89.517,95.944,98.811,91.966,109.285,90.094z"/>
	<path fill="#964399" d="M384.168,157.512c-2.413-11.355-10.16-19.298-18.643-26.4c-12.28-10.281-23.279-21.308-27.924-37.329
		c-3.524-12.158-11.313-21.673-20.034-30.529c-9.626-9.776-20.632-15.586-34.875-13.06c-2.593,0.459-5.313,0.401-7.964,0.304
		c-21.141-0.776-42.277-1.619-60.917-2.345c-36.474,0.511-70.403,1.19-103.737,8.924c-21.582,5.007-42.069,12.358-59.57,26.53
		c-3.491,2.827-5.812,5.639-5.693,10.713c0.102,4.324-1.354,8.817-2.77,13.018c-3.045,9.035-10.207,15.086-16.761,21.422
		c-8.716,8.427-13.55,18.382-11.164,30.426c1.689,8.523,3.784,17.427,7.946,24.91c10.659,19.169,14.936,39.319,12.78,60.937
		c-1.553,15.564-3.882,31.061-5.084,46.648c-0.817,10.599-3.086,21.555,3.666,31.49c8.356,12.294,19.794,20.097,34.026,23.698
		c21.959,5.557,43.974,3.446,65.853-0.592c14.692-2.712,29.159-6.782,43.916-8.979c15.525-2.312,29.871-7.202,43.73-14.404
		c14.155-7.355,28.891-13.594,43.06-20.925c16.5-8.538,33.203-16.884,48.812-26.884c14.953-9.58,27.612-21.97,32.488-40.176
		c0.339-1.265,1.121-2.406,1.658-3.622c5.557-12.581,16.141-21.044,25.345-30.569C384.252,188.362,387.642,173.86,384.168,157.512z
		 M352.638,207.595c-0.438,1.154-0.535,2.839-1.371,3.378c-5.644,3.646-9.131,8.903-10.759,15.152
		c-5.317,20.414-19.368,33.66-36.058,44.845c-21.273,14.255-44.92,23.902-67.819,35.013c-10.778,5.229-21.157,11.298-32.044,16.272
		c-4.155,1.898-9.236,1.738-13.874,2.626c-7.121,1.362-14.514,1.994-21.283,4.38c-27.11,9.554-54.961,13.323-83.546,11.657
		c-11.691-0.682-23.158-2.859-33.295-9.393c-10.049-6.477-16.454-15.043-15.417-27.636c1.708-20.748,4.069-41.459,5.132-62.237
		c0.591-11.552,0.066-23.364-1.778-34.765c-1.175-7.266-5.683-13.995-8.708-20.959c-0.583-1.341-1.223-2.656-1.837-3.983
		c6.874,3.361,13.747,6.723,20.621,10.084c0.328-0.398,0.656-0.797,0.983-1.195c-1.215-1.25-2.215-2.938-3.688-3.661
		c-3.262-1.6-6.867-2.501-10.129-4.102c-2.302-1.129-5.325-2.48-6.212-4.521c-4.488-10.323-5.345-24.57,3.299-34.356
		c7.394-8.371,16.886-12.21,27.62-13.192c5.752-0.527,11.592-0.094,17.393-0.094c-0.607-1.245-1.318-1.943-2.002-1.918
		c-10.022,0.364-20.695-1.212-29.904,1.748c-13.414,4.312-21.112,15.51-21.757,30c-0.274,6.165,1.555,12.424,2.429,18.641
		c-1.456-2.524-3.614-4.884-4.25-7.601c-3.441-14.697-1.296-28.126,9.997-39.156c2.501-2.443,4.831-5.062,7.291-7.549
		c6.585-6.655,9.613-14.729,9.199-23.99c-0.148-3.303,0.96-5.558,3.219-7.84c19.793-19.997,43.213-30.106,71.675-26.467
		c22.247,2.845,44.232,0.695,66.11-3.292c30.981-5.646,59.132,1.018,84.948,18.778c7.47,5.139,15.329,9.711,23.01,14.543
		c0.296-0.448,0.592-0.896,0.888-1.346c-10.265-6.889-20.354-14.061-30.83-20.611c-25.248-15.786-52.874-17.189-81.527-13.513
		c-17.471,2.241-35.104,3.272-52.687,4.548c-4.037,0.293-8.163-0.646-12.248-1.018c-0.033-0.419-0.065-0.838-0.098-1.258
		c6.289-0.834,12.569-1.728,18.866-2.492c47.12-5.724,94.392-6.009,141.741-4.123c14.104,0.562,24.916,6.662,32.697,18.148
		c3.535,5.218,6.533,10.818,9.542,16.371c6.142,11.336,12.127,22.757,18.248,34.277c-6.027,0-12.598,0-19.168,0
		c24.354-0.171,42.985,8.611,50.501,33.067C381.25,176.732,372.135,193.462,352.638,207.595z"/>
	<path fill="#964399" d="M217.847,168.5c-0.306,4.391,2.328,6.528,6.3,6.639c7.997,0.223,16.005,0.066,24.009,0.066
		c0.087-0.276,0.174-0.553,0.261-0.829c-2.358-0.383-4.711-1.038-7.077-1.093c-5.285-0.121-10.584,0.236-15.865,0.059
		c-4.284-0.144-7.057-1.974-5.652-7.266C218.844,166.859,217.906,167.649,217.847,168.5z"/>
	<path fill="#964399" d="M363.658,153.636c0.31,6.588,0.619,13.177,0.929,19.766C366.287,166.759,366.115,160.176,363.658,153.636z"
		/>
	<path fill="#964399" d="M101.107,76.335c7.141,0.381,14.229,1.63,21.365,2.235c20.122,1.709,40.121,2.61,60.104-2.407
		c22.414-5.628,44.726-3.429,66.401,4.171c15.704,5.506,29.52,14.467,42.486,24.838C274.278,85.3,251.832,75.58,226.342,72.041
		c-17.357-2.41-34.529-0.499-51.715,2.336c-20.801,3.431-41.669,4.972-62.582,0.2c-4.141-0.944-8.623-0.692-12.93-0.533
		c-4.781,0.176-8.549,2.512-11.083,6.68c1.766-0.461,3.141-1.705,4.755-2.286C95.482,77.467,98.37,76.188,101.107,76.335z"/>
	<path fill="#964399" d="M285.75,126.7c3.312,1.055,6.623,2.109,9.936,3.164c-0.023,0.238-0.047,0.476-0.07,0.714
		c-1.896,0.306-3.792,0.612-6.16,0.994c6.142,2.879,9.621,1.871,12.26-3.22c-2.581-0.45-5.139-0.851-7.676-1.351
		c-2.639-0.521-5.259-1.137-7.887-1.711C286.018,125.761,285.884,126.23,285.75,126.7z"/>
</g>
</svg>
