<?xml version="1.0" encoding="utf-8"?>
<!-- Generator: Adobe Illustrator 16.0.1, SVG Export Plug-In . SVG Version: 6.00 Build 0)  -->
<!DOCTYPE svg PUBLIC "-//W3C//DTD SVG 1.1//EN" "http://www.w3.org/Graphics/SVG/1.1/DTD/svg11.dtd">
<svg version="1.1" id="Layer_1" xmlns="http://www.w3.org/2000/svg" xmlns:xlink="http://www.w3.org/1999/xlink" x="0px" y="0px"
	 width="400px" height="400px" viewBox="0 0 400 400" enable-background="new 0 0 400 400" xml:space="preserve">
<path fill-rule="evenodd" clip-rule="evenodd" fill="#964399" d="M213.812,48.152c18.64,0.726,39.776,1.568,60.917,2.345
	c2.65,0.098,5.371,0.155,7.964-0.304c14.243-2.526,25.249,3.283,34.875,13.06c8.721,8.856,16.51,18.371,20.034,30.529
	c4.645,16.021,15.644,27.048,27.924,37.329c8.482,7.103,16.229,15.045,18.643,26.4c3.474,16.349,0.084,30.851-11.855,43.206
	c-9.204,9.525-19.788,17.988-25.345,30.569c-0.537,1.216-1.319,2.357-1.658,3.622c-4.876,18.206-17.535,30.596-32.488,40.176
	c-15.609,10-32.312,18.346-48.812,26.884c-14.169,7.331-28.904,13.569-43.06,20.925c-13.859,7.202-28.205,12.093-43.73,14.404
	c-14.756,2.196-29.223,6.267-43.916,8.979c-21.879,4.038-43.894,6.148-65.853,0.592c-14.231-3.602-25.67-11.404-34.026-23.698
	c-6.752-9.936-4.483-20.892-3.666-31.49c1.202-15.588,3.532-31.084,5.084-46.648c2.156-21.617-2.121-41.768-12.78-60.937
	c-4.162-7.483-6.257-16.387-7.946-24.91c-2.387-12.044,2.447-21.999,11.164-30.426c6.554-6.336,13.715-12.387,16.761-21.422
	c1.416-4.2,2.872-8.693,2.77-13.018c-0.119-5.074,2.202-7.886,5.693-10.713c17.5-14.172,37.988-21.523,59.57-26.53
	C143.409,49.343,177.338,48.663,213.812,48.152z M29.979,181.945c0.614,1.327,1.254,2.643,1.837,3.983
	c3.026,6.964,7.533,13.693,8.708,20.959c1.844,11.4,2.369,23.213,1.778,34.765c-1.063,20.778-3.424,41.489-5.132,62.237
	c-1.037,12.593,5.368,21.159,15.417,27.636c10.138,6.533,21.604,8.711,33.295,9.393c28.585,1.666,56.436-2.104,83.546-11.657
	c6.77-2.386,14.162-3.018,21.283-4.38c4.638-0.888,9.719-0.728,13.874-2.626c10.887-4.975,21.266-11.044,32.044-16.272
	c22.899-11.11,46.546-20.758,67.819-35.013c16.689-11.185,30.74-24.431,36.058-44.845c1.628-6.249,5.115-11.506,10.759-15.152
	c0.836-0.539,0.933-2.224,1.371-3.378c19.497-14.133,28.612-30.862,23.119-48.738c-7.516-24.456-26.146-33.238-50.501-33.067
	c6.57,0,13.141,0,19.168,0c-6.121-11.521-12.106-22.941-18.248-34.277c-3.009-5.553-6.007-11.153-9.542-16.371
	c-7.781-11.486-18.593-17.587-32.697-18.148c-47.35-1.886-94.621-1.601-141.741,4.123c-6.297,0.765-12.578,1.658-18.866,2.492
	c0.033,0.42,0.065,0.839,0.098,1.258c4.085,0.372,8.211,1.311,12.248,1.018c17.582-1.275,35.216-2.307,52.687-4.548
	c28.653-3.677,56.279-2.273,81.527,13.513c10.477,6.551,20.565,13.723,30.83,20.611c-0.296,0.449-0.592,0.897-0.888,1.346
	c-7.681-4.832-15.54-9.404-23.01-14.543c-25.816-17.761-53.967-24.425-84.948-18.778c-21.878,3.987-43.863,6.137-66.11,3.292
	c-28.461-3.64-51.882,6.47-71.675,26.467c-2.259,2.282-3.367,4.537-3.219,7.84c0.414,9.261-2.614,17.335-9.199,23.99
	c-2.46,2.486-4.79,5.105-7.291,7.549c-11.292,11.03-13.438,24.459-9.997,39.156c0.636,2.717,2.794,5.076,4.25,7.601
	C29.082,180.233,29.531,181.09,29.979,181.945z"/>
<path fill-rule="evenodd" clip-rule="evenodd" fill="#964399" d="M28.633,179.378c-0.874-6.217-2.704-12.476-2.429-18.641
	c0.645-14.49,8.343-25.688,21.757-30c9.208-2.96,19.882-1.384,29.904-1.748c0.685-0.025,1.396,0.673,2.002,1.918
	c-5.801,0-11.641-0.434-17.393,0.094c-10.734,0.982-20.226,4.821-27.62,13.192c-8.644,9.786-7.787,24.033-3.299,34.356
	c0.887,2.041,3.91,3.393,6.212,4.521c3.262,1.601,6.867,2.502,10.129,4.102c1.473,0.724,2.473,2.411,3.688,3.661
	c-0.328,0.398-0.656,0.797-0.983,1.195c-6.874-3.361-13.747-6.723-20.621-10.084C29.531,181.09,29.082,180.233,28.633,179.378z"/>
<path fill-rule="evenodd" clip-rule="evenodd" fill="#964399" d="M317.34,150.242c-0.467,10.837,6.692,15.816,14.647,20.342
	c3.12,1.774,5.901,4.146,9.125,6.452c-3.58,3.688-7.201,2.477-10.684,1.924c-6.741-1.069-11.343,3.75-10.251,10.682
	c0.208,1.327,0.487,3.12-0.178,4.034c-8.12,11.158-16.525,22.109-24.632,33.276c-15.299,21.076-36.503,34.127-59.727,44.562
	c-18.594,8.354-38.421,10.721-58.413,11.896c-26.658,1.568-53.333,1.678-79.693-3.455c-24.762-4.821-33.634-7.688-40.345-41.074
	c-2.776-13.812-3.067-27.886-0.839-41.786c1.008-6.291,3.796-12.301,5.827-18.422c1.552-4.679,3.104-9.36,4.837-13.974
	c0.454-1.207,1.582-2.16,2.4-3.23c1.159,0.939,3.137,1.732,3.335,2.843c0.874,4.899,0.784,9.999,1.94,14.811
	c0.755,3.14,2.385,6.686,4.761,8.72c14.474,12.396,31.918,17.467,50.508,19.167c30.741,2.812,60.388-3.332,89.664-11.641
	c29.842-8.469,58.507-20.14,86.717-32.97c3.087-1.404,5.402-2.626,5.115-6.733C311.248,152.695,312.698,150.108,317.34,150.242z
	 M221.131,235.908c0.754-0.134,0.095-0.083-0.524,0.104c-11.112,3.34-22.248,6.61-33.287,10.18c-1.146,0.371-2.433,2.552-2.419,3.88
	c0.059,5.643,1.033,11.299,0.789,16.912c-0.183,4.195,1.473,5.104,5.061,5.24c14.171,0.536,26.841-5.214,40.287-8.883
	C227.667,254.008,224.47,245.155,221.131,235.908z M231.117,234.113c-2.354,9.789,6.78,16.116,8.229,26.264
	c12.276-8.178,23.763-15.829,33.95-22.614c-2.053-7.091-3.784-13.077-5.372-18.562C256.217,223.944,243.952,228.913,231.117,234.113
	z M227.16,218.864c5.012-1.556,9.773-2.912,14.451-4.516c6.259-2.146,12.646-4.067,18.625-6.845
	c7.235-3.36,11.328-11.188,10.278-18.692c-15.616,4.517-31.145,9.008-46.948,13.578C224.82,208.137,225.979,213.451,227.16,218.864z
	 M215.638,205.973c-9.128,1.77-17.586,3.374-26.026,5.062c-3.25,0.65-6.525,1.301-9.658,2.344c-1.101,0.367-2.495,1.859-2.574,2.925
	c-0.301,4.082-0.121,8.199-0.121,12.175c9.904,1.846,27.868-0.703,41.954-5.847C218.091,217.406,216.955,212.113,215.638,205.973z
	 M146.912,253.302c1.066,6.342,2.16,13.149,3.425,19.925c0.13,0.696,1.282,1.72,1.958,1.718c8.688-0.021,17.375-0.199,25.304-0.326
	c0-9.437,0-17.443,0-25.185C166.998,250.77,157.207,252.004,146.912,253.302z M279.385,199.716
	c19.766-0.506,37.04-14.871,35.35-29.943c-1.906,0.268-3.99,0.125-5.676,0.875c-6.042,2.691-11.971,5.644-17.9,8.58
	c-4.007,1.984-9.465,3.169-11.484,6.437c-2.015,3.259-0.558,8.667-0.598,13.133C279.073,199.104,279.272,199.411,279.385,199.716z
	 M135.183,216.578c-8.566-1.18-17.153-2.362-26.251-3.615c-0.946,3.925-1.976,8.196-3.355,13.922
	c9.889,0.914,19.547,1.808,29.606,2.737C135.183,224.577,135.183,220.985,135.183,216.578z M117.957,254.449
	c2.537,6.046,4.903,11.869,7.469,17.602c0.391,0.874,1.65,1.769,2.614,1.905c4.688,0.663,9.413,1.072,14.225,1.581
	C141.916,257.091,133.225,249.621,117.957,254.449z M142.136,228.611c9.693,0,18.499,0,27.336,0c0-5.046,0-9.636,0-14.892
	c-8.29,0.979-16.248,1.918-24.367,2.876C144.148,220.467,143.18,224.384,142.136,228.611z M301.583,204.262
	c-19.466,2.418-29.275,13.989-21.831,24.491C290.861,224.391,292.819,212.136,301.583,204.262z M88.148,204.941
	c-5.603,6.557-1.915,13.169-0.892,19.411c3.72,0.842,6.824,1.544,8.906,2.016c1.604-5.504,3.082-10.573,4.534-15.554
	C96.404,208.806,92.533,206.993,88.148,204.941z M109.034,254.809c-3.562-0.874-7.625-1.872-12.023-2.951
	c2.728,6.305,5.178,11.97,8.286,19.152c2.062,0.458,6.004,1.335,10.867,2.417C113.585,266.692,111.375,260.923,109.034,254.809z
	 M84.476,248.357c-0.873,0.354-1.746,0.71-2.619,1.064c0.537,2.072,0.759,4.295,1.672,6.185c2.11,4.368,2.171,7.658-3.706,9.733
	c4.598,1.266,9.196,2.531,13.793,3.797c0.425-0.424,0.85-0.847,1.275-1.27C91.419,261.363,87.948,254.86,84.476,248.357z
	 M75.593,220.923c2.06-7.669,4.424-15.138,2.172-23.464C69.597,206.476,68.61,216.855,75.593,220.923z M73.792,259.826
	c1.489-6.668-3.224-10.587-5.65-15.521c-0.469,0.212-0.938,0.424-1.407,0.636C69.088,249.902,71.44,254.864,73.792,259.826z"/>
<path fill-rule="evenodd" clip-rule="evenodd" fill="#964399" d="M159.739,192.978c-0.432,1.073-0.794,2.181-1.306,3.214
	c-4.113,8.301-9.647,9.717-16.625,3.746c-4.787-4.098-9.006-8.856-13.509-13.289c-1.178-1.158-2.471-2.201-3.852-3.422
	c-1.959,1.389-3.8,2.693-6.116,4.335c-1.232-2.232-2.239-4.057-3.579-6.484c-6.229,2.894-12.513,5.813-18.796,8.732
	c-0.221-0.452-0.442-0.904-0.664-1.356c4.193-2.36,8.666-4.338,12.527-7.154c10.615-7.742,21.138-15.636,31.272-23.985
	c1.705-1.404,1.303-5.377,1.855-8.167c1.131-5.718-1.496-8.852-6.995-9.617c-11.358-1.581-22.76-2.851-34.1-4.547
	c-4.843-0.725-9.575-2.195-14.629-3.391c2.354-7.752,7.181-11.938,13.939-13.124c17.77-3.118,34.036,0.153,47.887,12.537
	c1.069,0.955,3.054,1.183,4.623,1.208c1.964,0.032,3.969-0.842,5.896-0.664c1.423,0.131,3.625,1.085,3.893,2.095
	c0.322,1.212-0.789,3.072-1.751,4.274c-0.765,0.955-2.192,1.461-3.409,1.96c-7.683,3.153-7.691,3.134-7.641,11.521
	c0.001,0.166-0.021,0.337,0.008,0.499c1.419,7.922-1.609,12.78-8.997,16.517c-9.795,4.954-10.036,7.696-3.515,16.292
	c2.176,2.869,4.972,5.348,7.79,7.628c3.109,2.517,6.438,2.98,10.018,0.257c1.319-1.003,3.494-0.882,5.278-1.273
	C159.407,191.871,159.573,192.425,159.739,192.978z M114.543,127.216c-4.636-3.787-9.747-1.386-14.85,0
	C104.643,127.216,109.593,127.216,114.543,127.216z"/>
<path fill-rule="evenodd" clip-rule="evenodd" fill="#964399" d="M273.027,137.041c-3.483-0.564-5.699-0.654-7.742-1.296
	c-20.646-6.477-39.745-1.049-58.507,7.373c-2.288,1.027-5.695,2.967-7.027,2.099c-4.469-2.915-8.669-6.559-12.005-10.702
	c-1.036-1.287,0.325-5.522,1.761-7.599c5.008-7.243,12.361-11.471,20.594-14.203c16.752-5.56,33.596-6.41,50.489-0.651
	c7.334,2.5,13.354,6.893,17.312,13.596c1.345,2.275,3.044,6.135,2.071,7.57C278.482,135.428,274.818,136.156,273.027,137.041z
	 M198.137,136.461c3.734-0.785,7.136-1.048,10.18-2.23c6.814-2.647,13.451-5.752,20.495-8.816c-0.586-2.344-1.45-5.8-2.456-9.821
	c-6.977,2.71-13.902,4.999-20.452,8.084C201.384,125.807,197.711,129.25,198.137,136.461z M270.854,129.423
	c-2.196-5.74-4.77-6.899-11.527-5.729C261.629,129.17,267.113,126.337,270.854,129.423z"/>
<path fill-rule="evenodd" clip-rule="evenodd" fill="#964399" d="M341.043,191.525c0.785-3.9,1.686-7.783,2.326-11.708
	c0.868-5.311,2.922-10.9,2.025-15.936c-2.531-14.215-18.7-23.269-32.801-19.26c-1.066,0.304-1.997,1.12-2.958,1.748
	c-17.996,11.755-37.412,14.062-57.76,7.996c-8.923-2.66-13.152-9.11-12.448-17.853c3.586,2.037,7.242,3.378,9.957,5.782
	c11.952,10.583,24.853,10.595,38.496,4.127c3.302-1.565,6.414-3.525,9.675-5.183c16.852-8.571,37.133-5.242,49.048,8.009
	C358.127,162.065,356.098,182.408,341.043,191.525z"/>
<path fill-rule="evenodd" clip-rule="evenodd" fill="#964399" d="M55.871,299.01c14.755,11.676,32.11,14.377,49.885,15.001
	c38.989,1.37,77.025-4.369,114.147-16.345c21.439-6.916,42.062-15.69,62.003-26.181c6.239-3.282,12.989-5.595,19.506-8.351
	c0.297,0.592,0.594,1.183,0.891,1.774c-5.439,3.121-10.768,6.455-16.335,9.329c-43.753,22.585-90.26,35.941-139.28,39.739
	c-19.693,1.525-39.573,1.229-59.349,0.835c-10.091-0.2-19.623-3.727-27.19-11.056C58.622,302.278,57.292,300.598,55.871,299.01z"/>
<path fill-rule="evenodd" clip-rule="evenodd" fill="#964399" d="M291.463,105.172c-12.967-10.371-26.782-19.332-42.486-24.838
	c-21.676-7.6-43.987-9.799-66.401-4.171c-19.982,5.018-39.981,4.116-60.104,2.407c-7.135-0.605-14.224-1.854-21.365-2.235
	c-2.737-0.146-5.625,1.132-8.32,2.103c-1.614,0.581-2.99,1.825-4.755,2.286c2.535-4.168,6.302-6.504,11.083-6.68
	c4.308-0.159,8.789-0.411,12.93,0.533c20.913,4.771,41.781,3.23,62.582-0.2c17.186-2.835,34.357-4.746,51.715-2.336
	C251.832,75.58,274.278,85.3,291.463,105.172z"/>
<path fill-rule="evenodd" clip-rule="evenodd" fill="#964399" d="M95.174,158.124c2.494-1.582,4.463-3.289,6.751-4.127
	c1.637-0.601,3.819-0.371,5.497,0.224c0.474,0.168,0.678,3.553-0.118,4.38c-2.278,2.367-4.876,5.269-7.819,5.965
	c-4.933,1.166-10.232,0.958-15.374,0.914c-1.048-0.01-2.664-1.679-3.019-2.878c-1.626-5.49-5.329-7.994-10.776-7.731
	c-4.463,0.215-8.911,0.933-13.342,1.581c-3.094,0.453-6.149,1.164-9.354,1.785c0.688-6.348,3.857-10.011,10.266-11.256
	c12.405-2.412,23.244,1.94,33.49,8.398c0.702,0.442,1.317,1.019,1.989,1.511C93.888,157.274,94.437,157.624,95.174,158.124z"/>
<path fill-rule="evenodd" clip-rule="evenodd" fill="#964399" d="M191.01,172.234c0.607-5.537,4.135-7.09,7.855-6.83
	c4.224,0.294,8.485,1.537,12.491,3.016c3.365,1.242,5.177,4.15,4.663,7.976c-0.528,3.925-0.783,7.957-1.946,11.697
	c-0.614,1.973-2.629,4.221-4.523,4.888c-1.99,0.7-4.593-0.34-6.929-0.619c0.518-1.962,0.894-3.978,1.616-5.86
	c0.327-0.852,1.665-1.316,1.987-2.168c0.938-2.477,2.299-5.132,2.049-7.569c-0.115-1.128-3.498-2.307-5.555-2.767
	C198.898,173.144,194.965,172.8,191.01,172.234z"/>
<path fill-rule="evenodd" clip-rule="evenodd" fill="#964399" d="M168.18,301.14c28.606,0.035,53.67-11.411,78.641-23.542
	c10.567-5.134,21.783-8.936,32.717-13.312c0.576-0.23,1.269-0.172,3.159-0.397c-10.271,4.833-19.491,8.975-28.538,13.468
	c-19.09,9.481-38.206,18.985-59.332,23.022c-8.692,1.661-17.664,1.859-26.51,2.723C168.271,302.448,168.226,301.794,168.18,301.14z"
	/>
<path fill-rule="evenodd" clip-rule="evenodd" fill="#964399" d="M197.097,188.904c-4.731-0.431-8.75-0.971-12.782-1.111
	c-3.635-0.126-7.289,0.322-10.928,0.228c-1.133-0.029-2.95-0.804-3.176-1.6c-0.275-0.967,0.482-2.727,1.362-3.415
	c1.647-1.289,3.673-2.812,5.599-2.896c6.062-0.265,12.188-0.271,18.216,0.346C199.081,180.834,199.372,183.911,197.097,188.904z"/>
<path fill-rule="evenodd" clip-rule="evenodd" fill="#964399" d="M199.716,85.062c23.655-3.226,46.848-2.46,67.957,10.208
	c4.729,2.837,8.333,7.547,11.922,12.03c-16.18-17.512-37.645-20.541-59.545-22.161C213.307,84.64,206.496,85.062,199.716,85.062z"/>
<path fill-rule="evenodd" clip-rule="evenodd" fill="#964399" d="M84.297,106.19C85,99.121,88.422,94.572,95.036,91.992
	c16.162-6.307,32.503-5.62,48.984-1.946c1.457,0.325,2.693,1.643,4.032,2.499c-0.208,0.529-0.417,1.06-0.626,1.589
	c-1.58-0.319-3.198-0.51-4.732-0.978c-10.931-3.33-22.04-5.095-33.409-3.062C98.811,91.966,89.517,95.944,84.297,106.19z"/>
<path fill-rule="evenodd" clip-rule="evenodd" fill="#964399" d="M123.59,304.536c-10.449-1.192-21.028-1.73-31.306-3.781
	c-8.471-1.69-15.569-6.313-18.568-16.951c13.872,16.093,32.247,17.021,50.141,19.237
	C123.768,303.539,123.679,304.037,123.59,304.536z"/>
<path fill-rule="evenodd" clip-rule="evenodd" fill="#964399" d="M364.542,173.722c-0.972,5.991-0.37,12.952-3.314,17.726
	c-3.611,5.854-10.627,8.973-18.272,9.258c13.525-3.401,18.665-13.207,20.309-25.79c0.056-0.427,0.877-0.754,1.342-1.127
	L364.542,173.722z"/>
<path fill-rule="evenodd" clip-rule="evenodd" fill="#964399" d="M38.405,166.335c-0.151-1.303-0.445-2.607-0.421-3.906
	c0.044-2.319,0.182-4.646,0.454-6.95c1.25-10.574,3.708-13.13,15.2-14.757c-2.026,1.319-3.909,2.984-6.105,3.888
	c-5.537,2.277-7.777,6.291-7.468,12.11c0.168,3.176,0.03,6.368,0.03,9.553C39.532,166.293,38.968,166.314,38.405,166.335z"/>
<path fill-rule="evenodd" clip-rule="evenodd" fill="#964399" d="M362.306,147.362c-9.211-17.543-26.03-15.921-41.863-16.742
	C340.935,126.966,358.618,132.832,362.306,147.362z"/>
<path fill-rule="evenodd" clip-rule="evenodd" fill="#964399" d="M248.155,175.205c-8.004,0-16.012,0.156-24.009-0.066
	c-3.972-0.11-6.605-2.248-6.3-6.639c0.06-0.851,0.997-1.641,1.975-2.424c-1.404,5.292,1.368,7.122,5.652,7.266
	c5.281,0.178,10.58-0.18,15.865-0.059c2.366,0.055,4.719,0.71,7.077,1.093C248.329,174.652,248.242,174.929,248.155,175.205z"/>
<path fill-rule="evenodd" clip-rule="evenodd" fill="#964399" d="M301.715,128.353c-2.639,5.091-6.118,6.099-12.26,3.22
	c2.368-0.382,4.264-0.688,6.16-0.994c0.023-0.238,0.047-0.476,0.07-0.714c-3.312-1.055-6.624-2.109-9.936-3.164
	c0.134-0.47,0.268-0.939,0.402-1.409c2.628,0.574,5.248,1.19,7.887,1.711C296.576,127.502,299.134,127.902,301.715,128.353z"/>
<path fill-rule="evenodd" clip-rule="evenodd" fill="#964399" d="M143.2,120.321c-1.69-6.919,3.103-15.81-6.676-20.224
	c4.049-1.392,7.93,2.271,8.165,6.628c0.239,4.431,0.053,8.883,0.053,13.325C144.227,120.141,143.713,120.231,143.2,120.321z"/>
<path fill-rule="evenodd" clip-rule="evenodd" fill="#964399" d="M204.531,88.329c-7.282,5.06-11,10.779-10.205,18.772
	C190.229,99.188,195.597,88.186,204.531,88.329z"/>
<path fill-rule="evenodd" clip-rule="evenodd" fill="#964399" d="M49.69,178.808c-7.631-0.953-10.018-3.298-11.241-10.412
	C42.053,171.733,45.54,174.963,49.69,178.808z"/>
<path fill-rule="evenodd" clip-rule="evenodd" fill="#964399" d="M364.605,173.788c-0.316-6.718-0.632-13.436-0.947-20.152
	c2.492,6.635,2.643,13.313,0.863,20.055C364.542,173.722,364.605,173.788,364.605,173.788z"/>
<path fill-rule="evenodd" clip-rule="evenodd" fill="#FFFFFF" d="M221.131,235.908c3.339,9.247,6.536,18.1,9.906,27.433
	c-13.446,3.669-26.116,9.419-40.287,8.883c-3.588-0.136-5.243-1.045-5.061-5.24c0.244-5.613-0.73-11.27-0.789-16.912
	c-0.014-1.328,1.272-3.509,2.419-3.88c11.039-3.569,22.175-6.84,33.287-10.18C221.226,235.825,221.885,235.774,221.131,235.908z"/>
<path fill-rule="evenodd" clip-rule="evenodd" fill="#FFFFFF" d="M231.117,234.113c12.835-5.2,25.1-10.169,36.807-14.912
	c1.588,5.484,3.319,11.471,5.372,18.562c-10.188,6.785-21.674,14.437-33.95,22.614C237.897,250.229,228.763,243.902,231.117,234.113
	z"/>
<path fill-rule="evenodd" clip-rule="evenodd" fill="#FFFFFF" d="M227.16,218.864c-1.181-5.413-2.34-10.728-3.594-16.475
	c15.804-4.57,31.332-9.062,46.948-13.578c1.05,7.505-3.043,15.332-10.278,18.692c-5.979,2.777-12.366,4.699-18.625,6.845
	C236.934,215.952,232.172,217.309,227.16,218.864z"/>
<path fill-rule="evenodd" clip-rule="evenodd" fill="#FFFFFF" d="M215.638,205.973c1.317,6.141,2.453,11.434,3.574,16.659
	c-14.086,5.144-32.05,7.692-41.954,5.847c0-3.976-0.18-8.093,0.121-12.175c0.079-1.065,1.474-2.558,2.574-2.925
	c3.133-1.043,6.408-1.693,9.658-2.344C198.052,209.347,206.51,207.742,215.638,205.973z"/>
<path fill-rule="evenodd" clip-rule="evenodd" fill="#FFFFFF" d="M146.912,253.302c10.295-1.298,20.086-2.532,30.688-3.868
	c0,7.741,0,15.748,0,25.185c-7.93,0.127-16.617,0.306-25.304,0.326c-0.676,0.002-1.828-1.021-1.958-1.718
	C149.072,266.451,147.979,259.644,146.912,253.302z"/>
<path fill-rule="evenodd" clip-rule="evenodd" fill="#FFFFFF" d="M279.382,199.717c-0.109-0.306-0.309-0.613-0.306-0.92
	c0.04-4.466-1.417-9.874,0.598-13.133c2.02-3.268,7.478-4.452,11.484-6.437c5.93-2.937,11.858-5.889,17.9-8.58
	c1.686-0.75,3.77-0.607,5.676-0.875C316.425,184.845,299.15,199.21,279.382,199.717z"/>
<path fill-rule="evenodd" clip-rule="evenodd" fill="#FFFFFF" d="M135.183,216.578c0,4.407,0,7.999,0,13.044
	c-10.059-0.93-19.718-1.823-29.606-2.737c1.379-5.726,2.409-9.997,3.355-13.922C118.03,214.216,126.617,215.398,135.183,216.578z"/>
<path fill-rule="evenodd" clip-rule="evenodd" fill="#FFFFFF" d="M117.957,254.449c15.268-4.828,23.958,2.642,24.308,21.088
	c-4.812-0.509-9.536-0.918-14.225-1.581c-0.964-0.137-2.223-1.031-2.614-1.905C122.86,266.318,120.494,260.495,117.957,254.449z"/>
<path fill-rule="evenodd" clip-rule="evenodd" fill="#FFFFFF" d="M142.136,228.611c1.044-4.228,2.012-8.145,2.969-12.016
	c8.119-0.958,16.077-1.897,24.367-2.876c0,5.256,0,9.846,0,14.892C160.634,228.611,151.829,228.611,142.136,228.611z"/>
<path fill-rule="evenodd" clip-rule="evenodd" fill="#FFFFFF" d="M301.583,204.262c-8.764,7.874-10.722,20.129-21.831,24.491
	C272.308,218.251,282.117,206.68,301.583,204.262z"/>
<path fill-rule="evenodd" clip-rule="evenodd" fill="#FFFFFF" d="M88.148,204.941c4.385,2.052,8.256,3.864,12.548,5.873
	c-1.452,4.98-2.93,10.05-4.534,15.554c-2.082-0.472-5.186-1.174-8.906-2.016C86.234,218.11,82.545,211.498,88.148,204.941z"/>
<path fill-rule="evenodd" clip-rule="evenodd" fill="#FFFFFF" d="M109.034,254.809c2.341,6.114,4.551,11.884,7.129,18.618
	c-4.862-1.082-8.805-1.959-10.867-2.417c-3.107-7.183-5.558-12.848-8.286-19.152C101.409,252.937,105.472,253.935,109.034,254.809z"
	/>
<path fill-rule="evenodd" clip-rule="evenodd" fill="#FFFFFF" d="M84.476,248.357c3.472,6.503,6.943,13.006,10.415,19.51
	c-0.425,0.423-0.85,0.846-1.275,1.27c-4.598-1.266-9.196-2.531-13.793-3.797c5.877-2.075,5.816-5.365,3.706-9.733
	c-0.913-1.89-1.135-4.112-1.672-6.185C82.73,249.067,83.603,248.712,84.476,248.357z"/>
<path fill-rule="evenodd" clip-rule="evenodd" fill="#FFFFFF" d="M75.593,220.923c-6.983-4.067-5.996-14.447,2.172-23.464
	C80.017,205.785,77.652,213.254,75.593,220.923z"/>
<path fill-rule="evenodd" clip-rule="evenodd" fill="#FFFFFF" d="M73.792,259.826c-2.353-4.962-4.705-9.924-7.057-14.886
	c0.469-0.212,0.938-0.424,1.407-0.636C70.569,249.239,75.282,253.158,73.792,259.826z"/>
<path fill-rule="evenodd" clip-rule="evenodd" fill="#FFFFFF" d="M114.543,127.216c-4.95,0-9.9,0-14.85,0
	C104.796,125.83,109.907,123.429,114.543,127.216z"/>
<path fill-rule="evenodd" clip-rule="evenodd" fill="#FFFFFF" d="M198.137,136.461c-0.426-7.211,3.247-10.654,7.767-12.784
	c6.55-3.085,13.476-5.374,20.452-8.084c1.006,4.021,1.87,7.478,2.456,9.821c-7.044,3.064-13.681,6.169-20.495,8.816
	C205.272,135.413,201.871,135.676,198.137,136.461z"/>
<path fill-rule="evenodd" clip-rule="evenodd" fill="#FFFFFF" d="M270.854,129.423c-3.74-3.086-9.225-0.253-11.527-5.729
	C266.084,122.523,268.657,123.683,270.854,129.423z"/>
</svg>
